%FSLAX45Y45*%
G04 Gerber Fmt 4.5, Leading zero omitted, Abs format (unit mm)*
G04 Created by KiCad (PCBNEW (6.0.5-0)) date 2022-06-18 11:46:54*
%MOMM*%
%LPD*%
G01*
G04 APERTURE LIST*
%TA.AperFunction,Profile*%
%ADD10C,0.100000*%
%TD*%
%ADD11C,0.200000*%
G04 APERTURE END LIST*
D10*
X1573859Y-1721605D02*
X10932936Y-1721605D01*
X10932936Y-1721605D02*
X10932936Y-6604602D01*
X10932936Y-6604602D02*
X1573859Y-6604602D01*
X1573859Y-6604602D02*
X1573859Y-1721605D01*
D11*
X1826478Y-6920078D02*
X1826478Y-6720078D01*
X1874097Y-6720078D01*
X1902668Y-6729602D01*
X1921716Y-6748649D01*
X1931240Y-6767697D01*
X1940763Y-6805792D01*
X1940763Y-6834364D01*
X1931240Y-6872459D01*
X1921716Y-6891506D01*
X1902668Y-6910554D01*
X1874097Y-6920078D01*
X1826478Y-6920078D01*
X2026478Y-6920078D02*
X2026478Y-6786744D01*
X2026478Y-6824840D02*
X2036002Y-6805792D01*
X2045525Y-6796268D01*
X2064573Y-6786744D01*
X2083621Y-6786744D01*
X2150287Y-6920078D02*
X2150287Y-6786744D01*
X2150287Y-6720078D02*
X2140764Y-6729602D01*
X2150287Y-6739125D01*
X2159811Y-6729602D01*
X2150287Y-6720078D01*
X2150287Y-6739125D01*
X2274097Y-6920078D02*
X2255049Y-6910554D01*
X2245525Y-6891506D01*
X2245525Y-6720078D01*
X2378859Y-6920078D02*
X2359811Y-6910554D01*
X2350287Y-6891506D01*
X2350287Y-6720078D01*
X2607430Y-6920078D02*
X2607430Y-6720078D01*
X2674097Y-6862935D01*
X2740764Y-6720078D01*
X2740764Y-6920078D01*
X2921716Y-6920078D02*
X2921716Y-6815316D01*
X2912192Y-6796268D01*
X2893144Y-6786744D01*
X2855049Y-6786744D01*
X2836002Y-6796268D01*
X2921716Y-6910554D02*
X2902668Y-6920078D01*
X2855049Y-6920078D01*
X2836002Y-6910554D01*
X2826478Y-6891506D01*
X2826478Y-6872459D01*
X2836002Y-6853411D01*
X2855049Y-6843887D01*
X2902668Y-6843887D01*
X2921716Y-6834364D01*
X3016954Y-6786744D02*
X3016954Y-6986744D01*
X3016954Y-6796268D02*
X3036002Y-6786744D01*
X3074097Y-6786744D01*
X3093144Y-6796268D01*
X3102668Y-6805792D01*
X3112192Y-6824840D01*
X3112192Y-6881983D01*
X3102668Y-6901030D01*
X3093144Y-6910554D01*
X3074097Y-6920078D01*
X3036002Y-6920078D01*
X3016954Y-6910554D01*
X3197906Y-6901030D02*
X3207430Y-6910554D01*
X3197906Y-6920078D01*
X3188383Y-6910554D01*
X3197906Y-6901030D01*
X3197906Y-6920078D01*
X3197906Y-6796268D02*
X3207430Y-6805792D01*
X3197906Y-6815316D01*
X3188383Y-6805792D01*
X3197906Y-6796268D01*
X3197906Y-6815316D01*
M02*
