%FSLAX45Y45*%
G04 Gerber Fmt 4.5, Leading zero omitted, Abs format (unit mm)*
G04 Created by KiCad (PCBNEW (6.0.5-0)) date 2022-06-18 11:46:54*
%MOMM*%
%LPD*%
G01*
G04 APERTURE LIST*
%TA.AperFunction,Profile*%
%ADD10C,0.100000*%
%TD*%
%ADD11C,0.200000*%
%ADD12C,0.040000*%
%ADD13C,0.120000*%
%ADD14C,0.150000*%
%ADD15C,0.155000*%
G04 APERTURE END LIST*
D10*
X1573859Y-1721605D02*
X10932936Y-1721605D01*
X10932936Y-1721605D02*
X10932936Y-6604602D01*
X10932936Y-6604602D02*
X1573859Y-6604602D01*
X1573859Y-6604602D02*
X1573859Y-1721605D01*
D11*
D12*
X2018464Y-2112177D02*
X2058464Y-2152177D01*
X2058464Y-2112177D02*
X2018464Y-2152177D01*
X2154500Y-6227284D02*
X2194500Y-6267284D01*
X2194500Y-6227284D02*
X2154500Y-6267284D01*
X2222519Y-3472543D02*
X2262519Y-3512543D01*
X2262519Y-3472543D02*
X2222519Y-3512543D01*
X3028000Y-5060000D02*
X3068000Y-5100000D01*
X3068000Y-5060000D02*
X3028000Y-5100000D01*
X3215625Y-6350861D02*
X3255625Y-6390861D01*
X3255625Y-6350861D02*
X3215625Y-6390861D01*
X3708535Y-6282401D02*
X3748535Y-6322401D01*
X3748535Y-6282401D02*
X3708535Y-6322401D01*
X3763302Y-5255507D02*
X3803302Y-5295507D01*
X3803302Y-5255507D02*
X3763302Y-5295507D01*
X4044000Y-4873363D02*
X4084000Y-4913363D01*
X4084000Y-4873363D02*
X4044000Y-4913363D01*
X4105600Y-6166020D02*
X4145600Y-6206020D01*
X4145600Y-6166020D02*
X4105600Y-6206020D01*
X4660124Y-6035946D02*
X4700124Y-6075946D01*
X4700124Y-6035946D02*
X4660124Y-6075946D01*
X6305944Y-2169172D02*
X6345944Y-2209172D01*
X6345944Y-2169172D02*
X6305944Y-2209172D01*
X7773869Y-5420648D02*
X7813869Y-5460648D01*
X7813869Y-5420648D02*
X7773869Y-5460648D01*
X7961816Y-5813012D02*
X8001816Y-5853012D01*
X8001816Y-5813012D02*
X7961816Y-5853012D01*
X8204370Y-6122388D02*
X8244370Y-6162388D01*
X8244370Y-6122388D02*
X8204370Y-6162388D01*
X8722648Y-5420648D02*
X8762648Y-5460648D01*
X8762648Y-5420648D02*
X8722648Y-5460648D01*
X8900165Y-4883737D02*
X8940165Y-4923737D01*
X8940165Y-4883737D02*
X8900165Y-4923737D01*
X9388947Y-4331003D02*
X9428947Y-4371003D01*
X9428947Y-4331003D02*
X9388947Y-4371003D01*
D13*
X2854000Y-2540000D02*
G75*
G03*
X2854000Y-2540000I-60000J0D01*
G01*
X2854000Y-3048000D02*
G75*
G03*
X2854000Y-3048000I-60000J0D01*
G01*
X3108000Y-2540000D02*
G75*
G03*
X3108000Y-2540000I-60000J0D01*
G01*
X3108000Y-3048000D02*
G75*
G03*
X3108000Y-3048000I-60000J0D01*
G01*
X3870000Y-2540000D02*
G75*
G03*
X3870000Y-2540000I-60000J0D01*
G01*
X3870000Y-3048000D02*
G75*
G03*
X3870000Y-3048000I-60000J0D01*
G01*
X4378000Y-2540000D02*
G75*
G03*
X4378000Y-2540000I-60000J0D01*
G01*
X4378000Y-3048000D02*
G75*
G03*
X4378000Y-3048000I-60000J0D01*
G01*
X5104616Y-5706992D02*
G75*
G03*
X5104616Y-5706992I-60000J0D01*
G01*
X5104616Y-6214992D02*
G75*
G03*
X5104616Y-6214992I-60000J0D01*
G01*
X5112537Y-4648458D02*
G75*
G03*
X5112537Y-4648458I-60000J0D01*
G01*
X5112537Y-5156458D02*
G75*
G03*
X5112537Y-5156458I-60000J0D01*
G01*
X5132513Y-3592721D02*
G75*
G03*
X5132513Y-3592721I-60000J0D01*
G01*
X5132513Y-4114721D02*
G75*
G03*
X5132513Y-4114721I-60000J0D01*
G01*
X5140000Y-2540000D02*
G75*
G03*
X5140000Y-2540000I-60000J0D01*
G01*
X5140000Y-3048000D02*
G75*
G03*
X5140000Y-3048000I-60000J0D01*
G01*
X6628616Y-5706992D02*
G75*
G03*
X6628616Y-5706992I-60000J0D01*
G01*
X6628616Y-6214992D02*
G75*
G03*
X6628616Y-6214992I-60000J0D01*
G01*
X6636537Y-4648458D02*
G75*
G03*
X6636537Y-4648458I-60000J0D01*
G01*
X6636537Y-5156458D02*
G75*
G03*
X6636537Y-5156458I-60000J0D01*
G01*
X6656513Y-3592721D02*
G75*
G03*
X6656513Y-3592721I-60000J0D01*
G01*
X6656513Y-4114721D02*
G75*
G03*
X6656513Y-4114721I-60000J0D01*
G01*
X6664000Y-2540000D02*
G75*
G03*
X6664000Y-2540000I-60000J0D01*
G01*
X6664000Y-3048000D02*
G75*
G03*
X6664000Y-3048000I-60000J0D01*
G01*
X7136616Y-5706992D02*
G75*
G03*
X7136616Y-5706992I-60000J0D01*
G01*
X7136616Y-6214992D02*
G75*
G03*
X7136616Y-6214992I-60000J0D01*
G01*
X7144537Y-4648458D02*
G75*
G03*
X7144537Y-4648458I-60000J0D01*
G01*
X7144537Y-5156458D02*
G75*
G03*
X7144537Y-5156458I-60000J0D01*
G01*
X7164513Y-3592721D02*
G75*
G03*
X7164513Y-3592721I-60000J0D01*
G01*
X7164513Y-4100721D02*
G75*
G03*
X7164513Y-4100721I-60000J0D01*
G01*
X7172000Y-2540000D02*
G75*
G03*
X7172000Y-2540000I-60000J0D01*
G01*
X7172000Y-3048000D02*
G75*
G03*
X7172000Y-3048000I-60000J0D01*
G01*
X8660616Y-5706992D02*
G75*
G03*
X8660616Y-5706992I-60000J0D01*
G01*
X8660616Y-6214992D02*
G75*
G03*
X8660616Y-6214992I-60000J0D01*
G01*
X8668537Y-4648458D02*
G75*
G03*
X8668537Y-4648458I-60000J0D01*
G01*
X8668537Y-5156458D02*
G75*
G03*
X8668537Y-5156458I-60000J0D01*
G01*
X8688513Y-3592721D02*
G75*
G03*
X8688513Y-3592721I-60000J0D01*
G01*
X8688513Y-4100721D02*
G75*
G03*
X8688513Y-4100721I-60000J0D01*
G01*
X8696000Y-2540000D02*
G75*
G03*
X8696000Y-2540000I-60000J0D01*
G01*
X8696000Y-3048000D02*
G75*
G03*
X8696000Y-3048000I-60000J0D01*
G01*
X9168616Y-5706992D02*
G75*
G03*
X9168616Y-5706992I-60000J0D01*
G01*
X9168616Y-6214992D02*
G75*
G03*
X9168616Y-6214992I-60000J0D01*
G01*
X9176537Y-4648458D02*
G75*
G03*
X9176537Y-4648458I-60000J0D01*
G01*
X9176537Y-5156458D02*
G75*
G03*
X9176537Y-5156458I-60000J0D01*
G01*
X9196513Y-3592721D02*
G75*
G03*
X9196513Y-3592721I-60000J0D01*
G01*
X9196513Y-4100721D02*
G75*
G03*
X9196513Y-4100721I-60000J0D01*
G01*
X9204000Y-2540000D02*
G75*
G03*
X9204000Y-2540000I-60000J0D01*
G01*
X9204000Y-3048000D02*
G75*
G03*
X9204000Y-3048000I-60000J0D01*
G01*
X10692616Y-5706992D02*
G75*
G03*
X10692616Y-5706992I-60000J0D01*
G01*
X10692616Y-6214992D02*
G75*
G03*
X10692616Y-6214992I-60000J0D01*
G01*
X10700537Y-4648458D02*
G75*
G03*
X10700537Y-4648458I-60000J0D01*
G01*
X10700537Y-5156458D02*
G75*
G03*
X10700537Y-5156458I-60000J0D01*
G01*
X10720513Y-3592721D02*
G75*
G03*
X10720513Y-3592721I-60000J0D01*
G01*
X10720513Y-4100721D02*
G75*
G03*
X10720513Y-4100721I-60000J0D01*
G01*
X10728000Y-2540000D02*
G75*
G03*
X10728000Y-2540000I-60000J0D01*
G01*
X10728000Y-3048000D02*
G75*
G03*
X10728000Y-3048000I-60000J0D01*
G01*
D14*
X2209846Y-4463711D02*
X2209846Y-4613711D01*
X2134846Y-4538711D02*
X2284846Y-4538711D01*
X2209846Y-5038289D02*
X2209846Y-5188289D01*
X2134846Y-5113289D02*
X2284846Y-5113289D01*
X2497135Y-3966111D02*
X2497135Y-4116111D01*
X2422135Y-4041111D02*
X2572135Y-4041111D01*
X2497135Y-5535889D02*
X2497135Y-5685888D01*
X2422135Y-5610888D02*
X2572135Y-5610888D01*
X2994735Y-3678822D02*
X2994735Y-3828822D01*
X2919735Y-3753822D02*
X3069735Y-3753822D01*
X2994735Y-5823178D02*
X2994735Y-5973178D01*
X2919735Y-5898178D02*
X3069735Y-5898178D01*
X3554260Y-4478764D02*
X3554260Y-4628764D01*
X3479260Y-4553764D02*
X3629260Y-4553764D01*
X3569313Y-3678822D02*
X3569313Y-3828822D01*
X3494313Y-3753822D02*
X3644313Y-3753822D01*
X3569313Y-5823178D02*
X3569313Y-5973178D01*
X3494313Y-5898178D02*
X3644313Y-5898178D01*
X4066912Y-3966111D02*
X4066912Y-4116111D01*
X3991912Y-4041111D02*
X4141912Y-4041111D01*
X4066912Y-5535889D02*
X4066912Y-5685888D01*
X3991912Y-5610888D02*
X4141912Y-5610888D01*
X4354202Y-4463711D02*
X4354202Y-4613711D01*
X4279202Y-4538711D02*
X4429202Y-4538711D01*
X4354202Y-5038289D02*
X4354202Y-5188289D01*
X4279202Y-5113289D02*
X4429202Y-5113289D01*
D15*
X7420801Y-2086801D02*
X7420801Y-1977199D01*
X7311199Y-1977199D01*
X7311199Y-2086801D01*
X7420801Y-2086801D01*
X9452801Y-2086801D02*
X9452801Y-1977199D01*
X9343199Y-1977199D01*
X9343199Y-2086801D01*
X9452801Y-2086801D01*
D11*
X1826478Y-6920078D02*
X1826478Y-6720078D01*
X1874097Y-6720078D01*
X1902668Y-6729602D01*
X1921716Y-6748649D01*
X1931240Y-6767697D01*
X1940763Y-6805792D01*
X1940763Y-6834364D01*
X1931240Y-6872459D01*
X1921716Y-6891506D01*
X1902668Y-6910554D01*
X1874097Y-6920078D01*
X1826478Y-6920078D01*
X2026478Y-6920078D02*
X2026478Y-6786744D01*
X2026478Y-6824840D02*
X2036002Y-6805792D01*
X2045525Y-6796268D01*
X2064573Y-6786744D01*
X2083621Y-6786744D01*
X2150287Y-6920078D02*
X2150287Y-6786744D01*
X2150287Y-6720078D02*
X2140764Y-6729602D01*
X2150287Y-6739125D01*
X2159811Y-6729602D01*
X2150287Y-6720078D01*
X2150287Y-6739125D01*
X2274097Y-6920078D02*
X2255049Y-6910554D01*
X2245525Y-6891506D01*
X2245525Y-6720078D01*
X2378859Y-6920078D02*
X2359811Y-6910554D01*
X2350287Y-6891506D01*
X2350287Y-6720078D01*
X2607430Y-6920078D02*
X2607430Y-6720078D01*
X2674097Y-6862935D01*
X2740764Y-6720078D01*
X2740764Y-6920078D01*
X2921716Y-6920078D02*
X2921716Y-6815316D01*
X2912192Y-6796268D01*
X2893144Y-6786744D01*
X2855049Y-6786744D01*
X2836002Y-6796268D01*
X2921716Y-6910554D02*
X2902668Y-6920078D01*
X2855049Y-6920078D01*
X2836002Y-6910554D01*
X2826478Y-6891506D01*
X2826478Y-6872459D01*
X2836002Y-6853411D01*
X2855049Y-6843887D01*
X2902668Y-6843887D01*
X2921716Y-6834364D01*
X3016954Y-6786744D02*
X3016954Y-6986744D01*
X3016954Y-6796268D02*
X3036002Y-6786744D01*
X3074097Y-6786744D01*
X3093144Y-6796268D01*
X3102668Y-6805792D01*
X3112192Y-6824840D01*
X3112192Y-6881983D01*
X3102668Y-6901030D01*
X3093144Y-6910554D01*
X3074097Y-6920078D01*
X3036002Y-6920078D01*
X3016954Y-6910554D01*
X3197906Y-6901030D02*
X3207430Y-6910554D01*
X3197906Y-6920078D01*
X3188383Y-6910554D01*
X3197906Y-6901030D01*
X3197906Y-6920078D01*
X3197906Y-6796268D02*
X3207430Y-6805792D01*
X3197906Y-6815316D01*
X3188383Y-6805792D01*
X3197906Y-6796268D01*
X3197906Y-6815316D01*
D12*
X1528859Y-7229602D02*
X1568859Y-7269602D01*
X1568859Y-7229602D02*
X1528859Y-7269602D01*
D11*
X1864573Y-7140078D02*
X1883621Y-7140078D01*
X1902668Y-7149602D01*
X1912192Y-7159125D01*
X1921716Y-7178173D01*
X1931240Y-7216268D01*
X1931240Y-7263887D01*
X1921716Y-7301983D01*
X1912192Y-7321030D01*
X1902668Y-7330554D01*
X1883621Y-7340078D01*
X1864573Y-7340078D01*
X1845525Y-7330554D01*
X1836002Y-7321030D01*
X1826478Y-7301983D01*
X1816954Y-7263887D01*
X1816954Y-7216268D01*
X1826478Y-7178173D01*
X1836002Y-7159125D01*
X1845525Y-7149602D01*
X1864573Y-7140078D01*
X2016954Y-7321030D02*
X2026478Y-7330554D01*
X2016954Y-7340078D01*
X2007430Y-7330554D01*
X2016954Y-7321030D01*
X2016954Y-7340078D01*
X2197906Y-7206744D02*
X2197906Y-7340078D01*
X2150287Y-7130554D02*
X2102668Y-7273411D01*
X2226478Y-7273411D01*
X2340764Y-7140078D02*
X2359811Y-7140078D01*
X2378859Y-7149602D01*
X2388383Y-7159125D01*
X2397906Y-7178173D01*
X2407430Y-7216268D01*
X2407430Y-7263887D01*
X2397906Y-7301983D01*
X2388383Y-7321030D01*
X2378859Y-7330554D01*
X2359811Y-7340078D01*
X2340764Y-7340078D01*
X2321716Y-7330554D01*
X2312192Y-7321030D01*
X2302668Y-7301983D01*
X2293145Y-7263887D01*
X2293145Y-7216268D01*
X2302668Y-7178173D01*
X2312192Y-7159125D01*
X2321716Y-7149602D01*
X2340764Y-7140078D01*
X2531240Y-7140078D02*
X2550287Y-7140078D01*
X2569335Y-7149602D01*
X2578859Y-7159125D01*
X2588383Y-7178173D01*
X2597906Y-7216268D01*
X2597906Y-7263887D01*
X2588383Y-7301983D01*
X2578859Y-7321030D01*
X2569335Y-7330554D01*
X2550287Y-7340078D01*
X2531240Y-7340078D01*
X2512192Y-7330554D01*
X2502668Y-7321030D01*
X2493145Y-7301983D01*
X2483621Y-7263887D01*
X2483621Y-7216268D01*
X2493145Y-7178173D01*
X2502668Y-7159125D01*
X2512192Y-7149602D01*
X2531240Y-7140078D01*
X2683621Y-7340078D02*
X2683621Y-7206744D01*
X2683621Y-7225792D02*
X2693145Y-7216268D01*
X2712192Y-7206744D01*
X2740764Y-7206744D01*
X2759811Y-7216268D01*
X2769335Y-7235316D01*
X2769335Y-7340078D01*
X2769335Y-7235316D02*
X2778859Y-7216268D01*
X2797906Y-7206744D01*
X2826478Y-7206744D01*
X2845525Y-7216268D01*
X2855049Y-7235316D01*
X2855049Y-7340078D01*
X2950287Y-7340078D02*
X2950287Y-7206744D01*
X2950287Y-7225792D02*
X2959811Y-7216268D01*
X2978859Y-7206744D01*
X3007430Y-7206744D01*
X3026478Y-7216268D01*
X3036002Y-7235316D01*
X3036002Y-7340078D01*
X3036002Y-7235316D02*
X3045525Y-7216268D01*
X3064573Y-7206744D01*
X3093144Y-7206744D01*
X3112192Y-7216268D01*
X3121716Y-7235316D01*
X3121716Y-7340078D01*
X3512192Y-7130554D02*
X3340763Y-7387697D01*
X3769335Y-7140078D02*
X3788383Y-7140078D01*
X3807430Y-7149602D01*
X3816954Y-7159125D01*
X3826478Y-7178173D01*
X3836002Y-7216268D01*
X3836002Y-7263887D01*
X3826478Y-7301983D01*
X3816954Y-7321030D01*
X3807430Y-7330554D01*
X3788383Y-7340078D01*
X3769335Y-7340078D01*
X3750287Y-7330554D01*
X3740763Y-7321030D01*
X3731240Y-7301983D01*
X3721716Y-7263887D01*
X3721716Y-7216268D01*
X3731240Y-7178173D01*
X3740763Y-7159125D01*
X3750287Y-7149602D01*
X3769335Y-7140078D01*
X3921716Y-7321030D02*
X3931240Y-7330554D01*
X3921716Y-7340078D01*
X3912192Y-7330554D01*
X3921716Y-7321030D01*
X3921716Y-7340078D01*
X4055049Y-7140078D02*
X4074097Y-7140078D01*
X4093144Y-7149602D01*
X4102668Y-7159125D01*
X4112192Y-7178173D01*
X4121716Y-7216268D01*
X4121716Y-7263887D01*
X4112192Y-7301983D01*
X4102668Y-7321030D01*
X4093144Y-7330554D01*
X4074097Y-7340078D01*
X4055049Y-7340078D01*
X4036002Y-7330554D01*
X4026478Y-7321030D01*
X4016954Y-7301983D01*
X4007430Y-7263887D01*
X4007430Y-7216268D01*
X4016954Y-7178173D01*
X4026478Y-7159125D01*
X4036002Y-7149602D01*
X4055049Y-7140078D01*
X4312192Y-7340078D02*
X4197906Y-7340078D01*
X4255049Y-7340078D02*
X4255049Y-7140078D01*
X4236002Y-7168649D01*
X4216954Y-7187697D01*
X4197906Y-7197221D01*
X4493145Y-7140078D02*
X4397906Y-7140078D01*
X4388383Y-7235316D01*
X4397906Y-7225792D01*
X4416954Y-7216268D01*
X4464573Y-7216268D01*
X4483621Y-7225792D01*
X4493145Y-7235316D01*
X4502668Y-7254364D01*
X4502668Y-7301983D01*
X4493145Y-7321030D01*
X4483621Y-7330554D01*
X4464573Y-7340078D01*
X4416954Y-7340078D01*
X4397906Y-7330554D01*
X4388383Y-7321030D01*
X4569335Y-7140078D02*
X4702668Y-7140078D01*
X4616954Y-7340078D01*
X4769335Y-7140078D02*
X4769335Y-7178173D01*
X4845525Y-7140078D02*
X4845525Y-7178173D01*
X5140764Y-7416268D02*
X5131240Y-7406744D01*
X5112192Y-7378173D01*
X5102668Y-7359125D01*
X5093145Y-7330554D01*
X5083621Y-7282935D01*
X5083621Y-7244840D01*
X5093145Y-7197221D01*
X5102668Y-7168649D01*
X5112192Y-7149602D01*
X5131240Y-7121030D01*
X5140764Y-7111506D01*
X5321716Y-7340078D02*
X5207430Y-7340078D01*
X5264573Y-7340078D02*
X5264573Y-7140078D01*
X5245525Y-7168649D01*
X5226478Y-7187697D01*
X5207430Y-7197221D01*
X5388383Y-7140078D02*
X5521716Y-7140078D01*
X5436002Y-7340078D01*
X5750287Y-7340078D02*
X5750287Y-7140078D01*
X5836002Y-7340078D02*
X5836002Y-7235316D01*
X5826478Y-7216268D01*
X5807430Y-7206744D01*
X5778859Y-7206744D01*
X5759811Y-7216268D01*
X5750287Y-7225792D01*
X5959811Y-7340078D02*
X5940763Y-7330554D01*
X5931240Y-7321030D01*
X5921716Y-7301983D01*
X5921716Y-7244840D01*
X5931240Y-7225792D01*
X5940763Y-7216268D01*
X5959811Y-7206744D01*
X5988383Y-7206744D01*
X6007430Y-7216268D01*
X6016954Y-7225792D01*
X6026478Y-7244840D01*
X6026478Y-7301983D01*
X6016954Y-7321030D01*
X6007430Y-7330554D01*
X5988383Y-7340078D01*
X5959811Y-7340078D01*
X6140763Y-7340078D02*
X6121716Y-7330554D01*
X6112192Y-7311506D01*
X6112192Y-7140078D01*
X6293144Y-7330554D02*
X6274097Y-7340078D01*
X6236002Y-7340078D01*
X6216954Y-7330554D01*
X6207430Y-7311506D01*
X6207430Y-7235316D01*
X6216954Y-7216268D01*
X6236002Y-7206744D01*
X6274097Y-7206744D01*
X6293144Y-7216268D01*
X6302668Y-7235316D01*
X6302668Y-7254364D01*
X6207430Y-7273411D01*
X6378859Y-7330554D02*
X6397906Y-7340078D01*
X6436002Y-7340078D01*
X6455049Y-7330554D01*
X6464573Y-7311506D01*
X6464573Y-7301983D01*
X6455049Y-7282935D01*
X6436002Y-7273411D01*
X6407430Y-7273411D01*
X6388383Y-7263887D01*
X6378859Y-7244840D01*
X6378859Y-7235316D01*
X6388383Y-7216268D01*
X6407430Y-7206744D01*
X6436002Y-7206744D01*
X6455049Y-7216268D01*
X6531240Y-7416268D02*
X6540763Y-7406744D01*
X6559811Y-7378173D01*
X6569335Y-7359125D01*
X6578859Y-7330554D01*
X6588383Y-7282935D01*
X6588383Y-7244840D01*
X6578859Y-7197221D01*
X6569335Y-7168649D01*
X6559811Y-7149602D01*
X6540763Y-7121030D01*
X6531240Y-7111506D01*
D13*
X1568859Y-7513602D02*
G75*
G03*
X1568859Y-7513602I-60000J0D01*
G01*
D11*
X1931240Y-7604078D02*
X1816954Y-7604078D01*
X1874097Y-7604078D02*
X1874097Y-7404078D01*
X1855049Y-7432649D01*
X1836002Y-7451697D01*
X1816954Y-7461221D01*
X2016954Y-7585030D02*
X2026478Y-7594554D01*
X2016954Y-7604078D01*
X2007430Y-7594554D01*
X2016954Y-7585030D01*
X2016954Y-7604078D01*
X2102668Y-7423125D02*
X2112192Y-7413602D01*
X2131240Y-7404078D01*
X2178859Y-7404078D01*
X2197906Y-7413602D01*
X2207430Y-7423125D01*
X2216954Y-7442173D01*
X2216954Y-7461221D01*
X2207430Y-7489792D01*
X2093144Y-7604078D01*
X2216954Y-7604078D01*
X2340764Y-7404078D02*
X2359811Y-7404078D01*
X2378859Y-7413602D01*
X2388383Y-7423125D01*
X2397906Y-7442173D01*
X2407430Y-7480268D01*
X2407430Y-7527887D01*
X2397906Y-7565983D01*
X2388383Y-7585030D01*
X2378859Y-7594554D01*
X2359811Y-7604078D01*
X2340764Y-7604078D01*
X2321716Y-7594554D01*
X2312192Y-7585030D01*
X2302668Y-7565983D01*
X2293145Y-7527887D01*
X2293145Y-7480268D01*
X2302668Y-7442173D01*
X2312192Y-7423125D01*
X2321716Y-7413602D01*
X2340764Y-7404078D01*
X2531240Y-7404078D02*
X2550287Y-7404078D01*
X2569335Y-7413602D01*
X2578859Y-7423125D01*
X2588383Y-7442173D01*
X2597906Y-7480268D01*
X2597906Y-7527887D01*
X2588383Y-7565983D01*
X2578859Y-7585030D01*
X2569335Y-7594554D01*
X2550287Y-7604078D01*
X2531240Y-7604078D01*
X2512192Y-7594554D01*
X2502668Y-7585030D01*
X2493145Y-7565983D01*
X2483621Y-7527887D01*
X2483621Y-7480268D01*
X2493145Y-7442173D01*
X2502668Y-7423125D01*
X2512192Y-7413602D01*
X2531240Y-7404078D01*
X2683621Y-7604078D02*
X2683621Y-7470744D01*
X2683621Y-7489792D02*
X2693145Y-7480268D01*
X2712192Y-7470744D01*
X2740764Y-7470744D01*
X2759811Y-7480268D01*
X2769335Y-7499316D01*
X2769335Y-7604078D01*
X2769335Y-7499316D02*
X2778859Y-7480268D01*
X2797906Y-7470744D01*
X2826478Y-7470744D01*
X2845525Y-7480268D01*
X2855049Y-7499316D01*
X2855049Y-7604078D01*
X2950287Y-7604078D02*
X2950287Y-7470744D01*
X2950287Y-7489792D02*
X2959811Y-7480268D01*
X2978859Y-7470744D01*
X3007430Y-7470744D01*
X3026478Y-7480268D01*
X3036002Y-7499316D01*
X3036002Y-7604078D01*
X3036002Y-7499316D02*
X3045525Y-7480268D01*
X3064573Y-7470744D01*
X3093144Y-7470744D01*
X3112192Y-7480268D01*
X3121716Y-7499316D01*
X3121716Y-7604078D01*
X3512192Y-7394554D02*
X3340763Y-7651697D01*
X3769335Y-7404078D02*
X3788383Y-7404078D01*
X3807430Y-7413602D01*
X3816954Y-7423125D01*
X3826478Y-7442173D01*
X3836002Y-7480268D01*
X3836002Y-7527887D01*
X3826478Y-7565983D01*
X3816954Y-7585030D01*
X3807430Y-7594554D01*
X3788383Y-7604078D01*
X3769335Y-7604078D01*
X3750287Y-7594554D01*
X3740763Y-7585030D01*
X3731240Y-7565983D01*
X3721716Y-7527887D01*
X3721716Y-7480268D01*
X3731240Y-7442173D01*
X3740763Y-7423125D01*
X3750287Y-7413602D01*
X3769335Y-7404078D01*
X3921716Y-7585030D02*
X3931240Y-7594554D01*
X3921716Y-7604078D01*
X3912192Y-7594554D01*
X3921716Y-7585030D01*
X3921716Y-7604078D01*
X4055049Y-7404078D02*
X4074097Y-7404078D01*
X4093144Y-7413602D01*
X4102668Y-7423125D01*
X4112192Y-7442173D01*
X4121716Y-7480268D01*
X4121716Y-7527887D01*
X4112192Y-7565983D01*
X4102668Y-7585030D01*
X4093144Y-7594554D01*
X4074097Y-7604078D01*
X4055049Y-7604078D01*
X4036002Y-7594554D01*
X4026478Y-7585030D01*
X4016954Y-7565983D01*
X4007430Y-7527887D01*
X4007430Y-7480268D01*
X4016954Y-7442173D01*
X4026478Y-7423125D01*
X4036002Y-7413602D01*
X4055049Y-7404078D01*
X4293145Y-7470744D02*
X4293145Y-7604078D01*
X4245525Y-7394554D02*
X4197906Y-7537411D01*
X4321716Y-7537411D01*
X4378859Y-7404078D02*
X4512192Y-7404078D01*
X4426478Y-7604078D01*
X4578859Y-7423125D02*
X4588383Y-7413602D01*
X4607430Y-7404078D01*
X4655049Y-7404078D01*
X4674097Y-7413602D01*
X4683621Y-7423125D01*
X4693145Y-7442173D01*
X4693145Y-7461221D01*
X4683621Y-7489792D01*
X4569335Y-7604078D01*
X4693145Y-7604078D01*
X4769335Y-7404078D02*
X4769335Y-7442173D01*
X4845525Y-7404078D02*
X4845525Y-7442173D01*
X5140764Y-7680268D02*
X5131240Y-7670744D01*
X5112192Y-7642173D01*
X5102668Y-7623125D01*
X5093145Y-7594554D01*
X5083621Y-7546935D01*
X5083621Y-7508840D01*
X5093145Y-7461221D01*
X5102668Y-7432649D01*
X5112192Y-7413602D01*
X5131240Y-7385030D01*
X5140764Y-7375506D01*
X5312192Y-7404078D02*
X5216954Y-7404078D01*
X5207430Y-7499316D01*
X5216954Y-7489792D01*
X5236002Y-7480268D01*
X5283621Y-7480268D01*
X5302668Y-7489792D01*
X5312192Y-7499316D01*
X5321716Y-7518364D01*
X5321716Y-7565983D01*
X5312192Y-7585030D01*
X5302668Y-7594554D01*
X5283621Y-7604078D01*
X5236002Y-7604078D01*
X5216954Y-7594554D01*
X5207430Y-7585030D01*
X5493145Y-7404078D02*
X5455049Y-7404078D01*
X5436002Y-7413602D01*
X5426478Y-7423125D01*
X5407430Y-7451697D01*
X5397906Y-7489792D01*
X5397906Y-7565983D01*
X5407430Y-7585030D01*
X5416954Y-7594554D01*
X5436002Y-7604078D01*
X5474097Y-7604078D01*
X5493145Y-7594554D01*
X5502668Y-7585030D01*
X5512192Y-7565983D01*
X5512192Y-7518364D01*
X5502668Y-7499316D01*
X5493145Y-7489792D01*
X5474097Y-7480268D01*
X5436002Y-7480268D01*
X5416954Y-7489792D01*
X5407430Y-7499316D01*
X5397906Y-7518364D01*
X5750287Y-7604078D02*
X5750287Y-7404078D01*
X5836002Y-7604078D02*
X5836002Y-7499316D01*
X5826478Y-7480268D01*
X5807430Y-7470744D01*
X5778859Y-7470744D01*
X5759811Y-7480268D01*
X5750287Y-7489792D01*
X5959811Y-7604078D02*
X5940763Y-7594554D01*
X5931240Y-7585030D01*
X5921716Y-7565983D01*
X5921716Y-7508840D01*
X5931240Y-7489792D01*
X5940763Y-7480268D01*
X5959811Y-7470744D01*
X5988383Y-7470744D01*
X6007430Y-7480268D01*
X6016954Y-7489792D01*
X6026478Y-7508840D01*
X6026478Y-7565983D01*
X6016954Y-7585030D01*
X6007430Y-7594554D01*
X5988383Y-7604078D01*
X5959811Y-7604078D01*
X6140763Y-7604078D02*
X6121716Y-7594554D01*
X6112192Y-7575506D01*
X6112192Y-7404078D01*
X6293144Y-7594554D02*
X6274097Y-7604078D01*
X6236002Y-7604078D01*
X6216954Y-7594554D01*
X6207430Y-7575506D01*
X6207430Y-7499316D01*
X6216954Y-7480268D01*
X6236002Y-7470744D01*
X6274097Y-7470744D01*
X6293144Y-7480268D01*
X6302668Y-7499316D01*
X6302668Y-7518364D01*
X6207430Y-7537411D01*
X6378859Y-7594554D02*
X6397906Y-7604078D01*
X6436002Y-7604078D01*
X6455049Y-7594554D01*
X6464573Y-7575506D01*
X6464573Y-7565983D01*
X6455049Y-7546935D01*
X6436002Y-7537411D01*
X6407430Y-7537411D01*
X6388383Y-7527887D01*
X6378859Y-7508840D01*
X6378859Y-7499316D01*
X6388383Y-7480268D01*
X6407430Y-7470744D01*
X6436002Y-7470744D01*
X6455049Y-7480268D01*
X6531240Y-7680268D02*
X6540763Y-7670744D01*
X6559811Y-7642173D01*
X6569335Y-7623125D01*
X6578859Y-7594554D01*
X6588383Y-7546935D01*
X6588383Y-7508840D01*
X6578859Y-7461221D01*
X6569335Y-7432649D01*
X6559811Y-7413602D01*
X6540763Y-7385030D01*
X6531240Y-7375506D01*
D14*
X1493859Y-7702602D02*
X1493859Y-7852602D01*
X1418859Y-7777602D02*
X1568859Y-7777602D01*
D11*
X1931240Y-7868078D02*
X1816954Y-7868078D01*
X1874097Y-7868078D02*
X1874097Y-7668078D01*
X1855049Y-7696649D01*
X1836002Y-7715697D01*
X1816954Y-7725221D01*
X2016954Y-7849030D02*
X2026478Y-7858554D01*
X2016954Y-7868078D01*
X2007430Y-7858554D01*
X2016954Y-7849030D01*
X2016954Y-7868078D01*
X2207430Y-7668078D02*
X2112192Y-7668078D01*
X2102668Y-7763316D01*
X2112192Y-7753792D01*
X2131240Y-7744268D01*
X2178859Y-7744268D01*
X2197906Y-7753792D01*
X2207430Y-7763316D01*
X2216954Y-7782364D01*
X2216954Y-7829983D01*
X2207430Y-7849030D01*
X2197906Y-7858554D01*
X2178859Y-7868078D01*
X2131240Y-7868078D01*
X2112192Y-7858554D01*
X2102668Y-7849030D01*
X2340764Y-7668078D02*
X2359811Y-7668078D01*
X2378859Y-7677602D01*
X2388383Y-7687125D01*
X2397906Y-7706173D01*
X2407430Y-7744268D01*
X2407430Y-7791887D01*
X2397906Y-7829983D01*
X2388383Y-7849030D01*
X2378859Y-7858554D01*
X2359811Y-7868078D01*
X2340764Y-7868078D01*
X2321716Y-7858554D01*
X2312192Y-7849030D01*
X2302668Y-7829983D01*
X2293145Y-7791887D01*
X2293145Y-7744268D01*
X2302668Y-7706173D01*
X2312192Y-7687125D01*
X2321716Y-7677602D01*
X2340764Y-7668078D01*
X2531240Y-7668078D02*
X2550287Y-7668078D01*
X2569335Y-7677602D01*
X2578859Y-7687125D01*
X2588383Y-7706173D01*
X2597906Y-7744268D01*
X2597906Y-7791887D01*
X2588383Y-7829983D01*
X2578859Y-7849030D01*
X2569335Y-7858554D01*
X2550287Y-7868078D01*
X2531240Y-7868078D01*
X2512192Y-7858554D01*
X2502668Y-7849030D01*
X2493145Y-7829983D01*
X2483621Y-7791887D01*
X2483621Y-7744268D01*
X2493145Y-7706173D01*
X2502668Y-7687125D01*
X2512192Y-7677602D01*
X2531240Y-7668078D01*
X2683621Y-7868078D02*
X2683621Y-7734744D01*
X2683621Y-7753792D02*
X2693145Y-7744268D01*
X2712192Y-7734744D01*
X2740764Y-7734744D01*
X2759811Y-7744268D01*
X2769335Y-7763316D01*
X2769335Y-7868078D01*
X2769335Y-7763316D02*
X2778859Y-7744268D01*
X2797906Y-7734744D01*
X2826478Y-7734744D01*
X2845525Y-7744268D01*
X2855049Y-7763316D01*
X2855049Y-7868078D01*
X2950287Y-7868078D02*
X2950287Y-7734744D01*
X2950287Y-7753792D02*
X2959811Y-7744268D01*
X2978859Y-7734744D01*
X3007430Y-7734744D01*
X3026478Y-7744268D01*
X3036002Y-7763316D01*
X3036002Y-7868078D01*
X3036002Y-7763316D02*
X3045525Y-7744268D01*
X3064573Y-7734744D01*
X3093144Y-7734744D01*
X3112192Y-7744268D01*
X3121716Y-7763316D01*
X3121716Y-7868078D01*
X3512192Y-7658554D02*
X3340763Y-7915697D01*
X3769335Y-7668078D02*
X3788383Y-7668078D01*
X3807430Y-7677602D01*
X3816954Y-7687125D01*
X3826478Y-7706173D01*
X3836002Y-7744268D01*
X3836002Y-7791887D01*
X3826478Y-7829983D01*
X3816954Y-7849030D01*
X3807430Y-7858554D01*
X3788383Y-7868078D01*
X3769335Y-7868078D01*
X3750287Y-7858554D01*
X3740763Y-7849030D01*
X3731240Y-7829983D01*
X3721716Y-7791887D01*
X3721716Y-7744268D01*
X3731240Y-7706173D01*
X3740763Y-7687125D01*
X3750287Y-7677602D01*
X3769335Y-7668078D01*
X3921716Y-7849030D02*
X3931240Y-7858554D01*
X3921716Y-7868078D01*
X3912192Y-7858554D01*
X3921716Y-7849030D01*
X3921716Y-7868078D01*
X4055049Y-7668078D02*
X4074097Y-7668078D01*
X4093144Y-7677602D01*
X4102668Y-7687125D01*
X4112192Y-7706173D01*
X4121716Y-7744268D01*
X4121716Y-7791887D01*
X4112192Y-7829983D01*
X4102668Y-7849030D01*
X4093144Y-7858554D01*
X4074097Y-7868078D01*
X4055049Y-7868078D01*
X4036002Y-7858554D01*
X4026478Y-7849030D01*
X4016954Y-7829983D01*
X4007430Y-7791887D01*
X4007430Y-7744268D01*
X4016954Y-7706173D01*
X4026478Y-7687125D01*
X4036002Y-7677602D01*
X4055049Y-7668078D01*
X4302668Y-7668078D02*
X4207430Y-7668078D01*
X4197906Y-7763316D01*
X4207430Y-7753792D01*
X4226478Y-7744268D01*
X4274097Y-7744268D01*
X4293145Y-7753792D01*
X4302668Y-7763316D01*
X4312192Y-7782364D01*
X4312192Y-7829983D01*
X4302668Y-7849030D01*
X4293145Y-7858554D01*
X4274097Y-7868078D01*
X4226478Y-7868078D01*
X4207430Y-7858554D01*
X4197906Y-7849030D01*
X4407430Y-7868078D02*
X4445525Y-7868078D01*
X4464573Y-7858554D01*
X4474097Y-7849030D01*
X4493145Y-7820459D01*
X4502668Y-7782364D01*
X4502668Y-7706173D01*
X4493145Y-7687125D01*
X4483621Y-7677602D01*
X4464573Y-7668078D01*
X4426478Y-7668078D01*
X4407430Y-7677602D01*
X4397906Y-7687125D01*
X4388383Y-7706173D01*
X4388383Y-7753792D01*
X4397906Y-7772840D01*
X4407430Y-7782364D01*
X4426478Y-7791887D01*
X4464573Y-7791887D01*
X4483621Y-7782364D01*
X4493145Y-7772840D01*
X4502668Y-7753792D01*
X4693145Y-7868078D02*
X4578859Y-7868078D01*
X4636002Y-7868078D02*
X4636002Y-7668078D01*
X4616954Y-7696649D01*
X4597906Y-7715697D01*
X4578859Y-7725221D01*
X4769335Y-7668078D02*
X4769335Y-7706173D01*
X4845525Y-7668078D02*
X4845525Y-7706173D01*
X5140764Y-7944268D02*
X5131240Y-7934744D01*
X5112192Y-7906173D01*
X5102668Y-7887125D01*
X5093145Y-7858554D01*
X5083621Y-7810935D01*
X5083621Y-7772840D01*
X5093145Y-7725221D01*
X5102668Y-7696649D01*
X5112192Y-7677602D01*
X5131240Y-7649030D01*
X5140764Y-7639506D01*
X5321716Y-7868078D02*
X5207430Y-7868078D01*
X5264573Y-7868078D02*
X5264573Y-7668078D01*
X5245525Y-7696649D01*
X5226478Y-7715697D01*
X5207430Y-7725221D01*
X5388383Y-7668078D02*
X5512192Y-7668078D01*
X5445525Y-7744268D01*
X5474097Y-7744268D01*
X5493145Y-7753792D01*
X5502668Y-7763316D01*
X5512192Y-7782364D01*
X5512192Y-7829983D01*
X5502668Y-7849030D01*
X5493145Y-7858554D01*
X5474097Y-7868078D01*
X5416954Y-7868078D01*
X5397906Y-7858554D01*
X5388383Y-7849030D01*
X5750287Y-7868078D02*
X5750287Y-7668078D01*
X5836002Y-7868078D02*
X5836002Y-7763316D01*
X5826478Y-7744268D01*
X5807430Y-7734744D01*
X5778859Y-7734744D01*
X5759811Y-7744268D01*
X5750287Y-7753792D01*
X5959811Y-7868078D02*
X5940763Y-7858554D01*
X5931240Y-7849030D01*
X5921716Y-7829983D01*
X5921716Y-7772840D01*
X5931240Y-7753792D01*
X5940763Y-7744268D01*
X5959811Y-7734744D01*
X5988383Y-7734744D01*
X6007430Y-7744268D01*
X6016954Y-7753792D01*
X6026478Y-7772840D01*
X6026478Y-7829983D01*
X6016954Y-7849030D01*
X6007430Y-7858554D01*
X5988383Y-7868078D01*
X5959811Y-7868078D01*
X6140763Y-7868078D02*
X6121716Y-7858554D01*
X6112192Y-7839506D01*
X6112192Y-7668078D01*
X6293144Y-7858554D02*
X6274097Y-7868078D01*
X6236002Y-7868078D01*
X6216954Y-7858554D01*
X6207430Y-7839506D01*
X6207430Y-7763316D01*
X6216954Y-7744268D01*
X6236002Y-7734744D01*
X6274097Y-7734744D01*
X6293144Y-7744268D01*
X6302668Y-7763316D01*
X6302668Y-7782364D01*
X6207430Y-7801411D01*
X6378859Y-7858554D02*
X6397906Y-7868078D01*
X6436002Y-7868078D01*
X6455049Y-7858554D01*
X6464573Y-7839506D01*
X6464573Y-7829983D01*
X6455049Y-7810935D01*
X6436002Y-7801411D01*
X6407430Y-7801411D01*
X6388383Y-7791887D01*
X6378859Y-7772840D01*
X6378859Y-7763316D01*
X6388383Y-7744268D01*
X6407430Y-7734744D01*
X6436002Y-7734744D01*
X6455049Y-7744268D01*
X6531240Y-7944268D02*
X6540763Y-7934744D01*
X6559811Y-7906173D01*
X6569335Y-7887125D01*
X6578859Y-7858554D01*
X6588383Y-7810935D01*
X6588383Y-7772840D01*
X6578859Y-7725221D01*
X6569335Y-7696649D01*
X6559811Y-7677602D01*
X6540763Y-7649030D01*
X6531240Y-7639506D01*
D15*
X1546160Y-8102403D02*
X1546160Y-7992800D01*
X1436557Y-7992800D01*
X1436557Y-8102403D01*
X1546160Y-8102403D01*
D11*
X1931240Y-8138078D02*
X1816954Y-8138078D01*
X1874097Y-8138078D02*
X1874097Y-7938078D01*
X1855049Y-7966649D01*
X1836002Y-7985697D01*
X1816954Y-7995221D01*
X2016954Y-8119030D02*
X2026478Y-8128554D01*
X2016954Y-8138078D01*
X2007430Y-8128554D01*
X2016954Y-8119030D01*
X2016954Y-8138078D01*
X2207430Y-7938078D02*
X2112192Y-7938078D01*
X2102668Y-8033316D01*
X2112192Y-8023792D01*
X2131240Y-8014268D01*
X2178859Y-8014268D01*
X2197906Y-8023792D01*
X2207430Y-8033316D01*
X2216954Y-8052364D01*
X2216954Y-8099983D01*
X2207430Y-8119030D01*
X2197906Y-8128554D01*
X2178859Y-8138078D01*
X2131240Y-8138078D01*
X2112192Y-8128554D01*
X2102668Y-8119030D01*
X2397906Y-7938078D02*
X2302668Y-7938078D01*
X2293145Y-8033316D01*
X2302668Y-8023792D01*
X2321716Y-8014268D01*
X2369335Y-8014268D01*
X2388383Y-8023792D01*
X2397906Y-8033316D01*
X2407430Y-8052364D01*
X2407430Y-8099983D01*
X2397906Y-8119030D01*
X2388383Y-8128554D01*
X2369335Y-8138078D01*
X2321716Y-8138078D01*
X2302668Y-8128554D01*
X2293145Y-8119030D01*
X2531240Y-7938078D02*
X2550287Y-7938078D01*
X2569335Y-7947602D01*
X2578859Y-7957125D01*
X2588383Y-7976173D01*
X2597906Y-8014268D01*
X2597906Y-8061887D01*
X2588383Y-8099983D01*
X2578859Y-8119030D01*
X2569335Y-8128554D01*
X2550287Y-8138078D01*
X2531240Y-8138078D01*
X2512192Y-8128554D01*
X2502668Y-8119030D01*
X2493145Y-8099983D01*
X2483621Y-8061887D01*
X2483621Y-8014268D01*
X2493145Y-7976173D01*
X2502668Y-7957125D01*
X2512192Y-7947602D01*
X2531240Y-7938078D01*
X2683621Y-8138078D02*
X2683621Y-8004744D01*
X2683621Y-8023792D02*
X2693145Y-8014268D01*
X2712192Y-8004744D01*
X2740764Y-8004744D01*
X2759811Y-8014268D01*
X2769335Y-8033316D01*
X2769335Y-8138078D01*
X2769335Y-8033316D02*
X2778859Y-8014268D01*
X2797906Y-8004744D01*
X2826478Y-8004744D01*
X2845525Y-8014268D01*
X2855049Y-8033316D01*
X2855049Y-8138078D01*
X2950287Y-8138078D02*
X2950287Y-8004744D01*
X2950287Y-8023792D02*
X2959811Y-8014268D01*
X2978859Y-8004744D01*
X3007430Y-8004744D01*
X3026478Y-8014268D01*
X3036002Y-8033316D01*
X3036002Y-8138078D01*
X3036002Y-8033316D02*
X3045525Y-8014268D01*
X3064573Y-8004744D01*
X3093144Y-8004744D01*
X3112192Y-8014268D01*
X3121716Y-8033316D01*
X3121716Y-8138078D01*
X3512192Y-7928554D02*
X3340763Y-8185697D01*
X3769335Y-7938078D02*
X3788383Y-7938078D01*
X3807430Y-7947602D01*
X3816954Y-7957125D01*
X3826478Y-7976173D01*
X3836002Y-8014268D01*
X3836002Y-8061887D01*
X3826478Y-8099983D01*
X3816954Y-8119030D01*
X3807430Y-8128554D01*
X3788383Y-8138078D01*
X3769335Y-8138078D01*
X3750287Y-8128554D01*
X3740763Y-8119030D01*
X3731240Y-8099983D01*
X3721716Y-8061887D01*
X3721716Y-8014268D01*
X3731240Y-7976173D01*
X3740763Y-7957125D01*
X3750287Y-7947602D01*
X3769335Y-7938078D01*
X3921716Y-8119030D02*
X3931240Y-8128554D01*
X3921716Y-8138078D01*
X3912192Y-8128554D01*
X3921716Y-8119030D01*
X3921716Y-8138078D01*
X4055049Y-7938078D02*
X4074097Y-7938078D01*
X4093144Y-7947602D01*
X4102668Y-7957125D01*
X4112192Y-7976173D01*
X4121716Y-8014268D01*
X4121716Y-8061887D01*
X4112192Y-8099983D01*
X4102668Y-8119030D01*
X4093144Y-8128554D01*
X4074097Y-8138078D01*
X4055049Y-8138078D01*
X4036002Y-8128554D01*
X4026478Y-8119030D01*
X4016954Y-8099983D01*
X4007430Y-8061887D01*
X4007430Y-8014268D01*
X4016954Y-7976173D01*
X4026478Y-7957125D01*
X4036002Y-7947602D01*
X4055049Y-7938078D01*
X4293145Y-7938078D02*
X4255049Y-7938078D01*
X4236002Y-7947602D01*
X4226478Y-7957125D01*
X4207430Y-7985697D01*
X4197906Y-8023792D01*
X4197906Y-8099983D01*
X4207430Y-8119030D01*
X4216954Y-8128554D01*
X4236002Y-8138078D01*
X4274097Y-8138078D01*
X4293145Y-8128554D01*
X4302668Y-8119030D01*
X4312192Y-8099983D01*
X4312192Y-8052364D01*
X4302668Y-8033316D01*
X4293145Y-8023792D01*
X4274097Y-8014268D01*
X4236002Y-8014268D01*
X4216954Y-8023792D01*
X4207430Y-8033316D01*
X4197906Y-8052364D01*
X4502668Y-8138078D02*
X4388383Y-8138078D01*
X4445525Y-8138078D02*
X4445525Y-7938078D01*
X4426478Y-7966649D01*
X4407430Y-7985697D01*
X4388383Y-7995221D01*
X4626478Y-7938078D02*
X4645525Y-7938078D01*
X4664573Y-7947602D01*
X4674097Y-7957125D01*
X4683621Y-7976173D01*
X4693145Y-8014268D01*
X4693145Y-8061887D01*
X4683621Y-8099983D01*
X4674097Y-8119030D01*
X4664573Y-8128554D01*
X4645525Y-8138078D01*
X4626478Y-8138078D01*
X4607430Y-8128554D01*
X4597906Y-8119030D01*
X4588383Y-8099983D01*
X4578859Y-8061887D01*
X4578859Y-8014268D01*
X4588383Y-7976173D01*
X4597906Y-7957125D01*
X4607430Y-7947602D01*
X4626478Y-7938078D01*
X4769335Y-7938078D02*
X4769335Y-7976173D01*
X4845525Y-7938078D02*
X4845525Y-7976173D01*
X5140764Y-8214268D02*
X5131240Y-8204744D01*
X5112192Y-8176173D01*
X5102668Y-8157125D01*
X5093145Y-8128554D01*
X5083621Y-8080935D01*
X5083621Y-8042840D01*
X5093145Y-7995221D01*
X5102668Y-7966649D01*
X5112192Y-7947602D01*
X5131240Y-7919030D01*
X5140764Y-7909506D01*
X5207430Y-7957125D02*
X5216954Y-7947602D01*
X5236002Y-7938078D01*
X5283621Y-7938078D01*
X5302668Y-7947602D01*
X5312192Y-7957125D01*
X5321716Y-7976173D01*
X5321716Y-7995221D01*
X5312192Y-8023792D01*
X5197906Y-8138078D01*
X5321716Y-8138078D01*
X5559811Y-8138078D02*
X5559811Y-7938078D01*
X5645525Y-8138078D02*
X5645525Y-8033316D01*
X5636002Y-8014268D01*
X5616954Y-8004744D01*
X5588383Y-8004744D01*
X5569335Y-8014268D01*
X5559811Y-8023792D01*
X5769335Y-8138078D02*
X5750287Y-8128554D01*
X5740763Y-8119030D01*
X5731240Y-8099983D01*
X5731240Y-8042840D01*
X5740763Y-8023792D01*
X5750287Y-8014268D01*
X5769335Y-8004744D01*
X5797906Y-8004744D01*
X5816954Y-8014268D01*
X5826478Y-8023792D01*
X5836002Y-8042840D01*
X5836002Y-8099983D01*
X5826478Y-8119030D01*
X5816954Y-8128554D01*
X5797906Y-8138078D01*
X5769335Y-8138078D01*
X5950287Y-8138078D02*
X5931240Y-8128554D01*
X5921716Y-8109506D01*
X5921716Y-7938078D01*
X6102668Y-8128554D02*
X6083621Y-8138078D01*
X6045525Y-8138078D01*
X6026478Y-8128554D01*
X6016954Y-8109506D01*
X6016954Y-8033316D01*
X6026478Y-8014268D01*
X6045525Y-8004744D01*
X6083621Y-8004744D01*
X6102668Y-8014268D01*
X6112192Y-8033316D01*
X6112192Y-8052364D01*
X6016954Y-8071411D01*
X6188383Y-8128554D02*
X6207430Y-8138078D01*
X6245525Y-8138078D01*
X6264573Y-8128554D01*
X6274097Y-8109506D01*
X6274097Y-8099983D01*
X6264573Y-8080935D01*
X6245525Y-8071411D01*
X6216954Y-8071411D01*
X6197906Y-8061887D01*
X6188383Y-8042840D01*
X6188383Y-8033316D01*
X6197906Y-8014268D01*
X6216954Y-8004744D01*
X6245525Y-8004744D01*
X6264573Y-8014268D01*
X6340763Y-8214268D02*
X6350287Y-8204744D01*
X6369335Y-8176173D01*
X6378859Y-8157125D01*
X6388383Y-8128554D01*
X6397906Y-8080935D01*
X6397906Y-8042840D01*
X6388383Y-7995221D01*
X6378859Y-7966649D01*
X6369335Y-7947602D01*
X6350287Y-7919030D01*
X6340763Y-7909506D01*
M02*
