M48
; DRILL file {KiCad (6.0.5-0)} date Saturday, June 18, 2022 at 11:46:35 AM
; FORMAT={-:-/ absolute / metric / decimal}
; #@! TF.CreationDate,2022-06-18T11:46:35-04:00
; #@! TF.GenerationSoftware,Kicad,Pcbnew,(6.0.5-0)
; #@! TF.FileFunction,Plated,1,2,PTH
FMAT,2
METRIC
; #@! TA.AperFunction,Plated,PTH,ViaDrill
T1C0.400
; #@! TA.AperFunction,Plated,PTH,ComponentDrill
T2C1.200
; #@! TA.AperFunction,Plated,PTH,ComponentDrill
T3C1.500
; #@! TA.AperFunction,Plated,PTH,ComponentDrill
T4C1.550
%
G90
G05
T1
X20.385Y-21.322
X21.745Y-62.473
X22.425Y-34.925
X30.48Y-50.8
X32.356Y-63.709
X37.285Y-63.024
X37.833Y-52.755
X40.64Y-48.934
X41.256Y-61.86
X46.801Y-60.559
X63.259Y-21.892
X77.939Y-54.406
X79.818Y-58.33
X82.244Y-61.424
X87.426Y-54.406
X89.202Y-49.037
X94.089Y-43.51
T2
X27.94Y-25.4
X27.94Y-30.48
X30.48Y-25.4
X30.48Y-30.48
X38.1Y-25.4
X38.1Y-30.48
X43.18Y-25.4
X43.18Y-30.48
X50.446Y-57.07
X50.446Y-62.15
X50.525Y-46.485
X50.525Y-51.565
X50.725Y-35.927
X50.725Y-41.147
X50.8Y-25.4
X50.8Y-30.48
X65.686Y-57.07
X65.686Y-62.15
X65.765Y-46.485
X65.765Y-51.565
X65.965Y-35.927
X65.965Y-41.147
X66.04Y-25.4
X66.04Y-30.48
X70.766Y-57.07
X70.766Y-62.15
X70.845Y-46.485
X70.845Y-51.565
X71.045Y-35.927
X71.045Y-41.007
X71.12Y-25.4
X71.12Y-30.48
X86.006Y-57.07
X86.006Y-62.15
X86.085Y-46.485
X86.085Y-51.565
X86.285Y-35.927
X86.285Y-41.007
X86.36Y-25.4
X86.36Y-30.48
X91.086Y-57.07
X91.086Y-62.15
X91.165Y-46.485
X91.165Y-51.565
X91.365Y-35.927
X91.365Y-41.007
X91.44Y-25.4
X91.44Y-30.48
X106.326Y-57.07
X106.326Y-62.15
X106.405Y-46.485
X106.405Y-51.565
X106.605Y-35.927
X106.605Y-41.007
X106.68Y-25.4
X106.68Y-30.48
T3
X22.098Y-45.387
X22.098Y-51.133
X24.971Y-40.411
X24.971Y-56.109
X29.947Y-37.538
X29.947Y-58.982
X35.543Y-45.538
X35.693Y-37.538
X35.693Y-58.982
X40.669Y-40.411
X40.669Y-56.109
X43.542Y-45.387
X43.542Y-51.133
T4
X73.66Y-20.32
X93.98Y-20.32
T0
M30
